<svg height="512pt" viewBox="-47 0 512 512" width="512pt" xmlns="http://www.w3.org/2000/svg"><path d="m165.789062 334.683594-92.554687-38.335938c-3.675781-1.523437-7.804687-1.523437-11.480469 0-3.675781 1.519532-6.597656 4.441406-8.117187 8.117188l-48.679688 117.523437c-13.734375 33.152344 2.0625 71.308594 35.222657 85.042969 7.957031 3.296875 16.332031 4.96875 24.890624 4.96875 26.429688 0 50.046876-15.777344 60.160157-40.191406l48.675781-117.527344c3.167969-7.652344-.464844-16.425781-8.117188-19.597656zm0 0" fill="#d55f05"/><path d="m165.789062 334.683594-46.277343-19.167969-79.332031 191.515625c7.957031 3.296875 16.332031 4.96875 24.890624 4.96875 26.429688 0 50.046876-15.777344 60.160157-40.191406l48.675781-117.527344c3.167969-7.652344-.464844-16.425781-8.117188-19.597656zm0 0" fill="#cb4509"/><path d="m408.6875 74.453125-169.378906-70.15625c-6.882813-2.851563-14.140625-4.296875-21.566406-4.296875-23.082032 0-43.679688 13.726562-52.476563 34.96875l-111.628906 269.496094c-1.523438 3.675781-1.523438 7.804687 0 11.480468 1.519531 3.675782 4.441406 6.59375 8.117187 8.117188l207.882813 86.105469c1.835937.761719 3.789062 1.140625 5.738281 1.140625 1.953125 0 3.902344-.378906 5.738281-1.140625 3.679688-1.523438 6.597657-4.441407 8.121094-8.117188l127.574219-307.996093c3.167968-7.65625-.464844-16.433594-8.121094-19.601563zm-182.28125 21.820313c1.550781-3.742188 5.167969-6.160157 9.21875-6.160157 1.300781 0 2.582031.257813 3.808594.769531 2.460937 1.019532 4.378906 2.9375 5.398437 5.394532 1.019531 2.460937 1.015625 5.171875-.003906 7.632812-1.546875 3.742188-5.167969 6.160156-9.21875 6.160156-1.300781 0-2.582031-.257812-3.808594-.765624-2.460937-1.019532-4.378906-2.9375-5.398437-5.398438-1.019532-2.457031-1.019532-5.167969.003906-7.632812zm0 0" fill="#c5e1e6"/><path d="m408.683594 74.457031-70.765625-29.316406-139.042969 335.71875 70.703125 29.453125c1.835937.761719 3.785156 1.140625 5.738281 1.140625 1.949219 0 3.902344-.378906 5.738282-1.140625 3.675781-1.523438 6.597656-4.441406 8.121093-8.117188l127.574219-308c3.167969-7.652343-.410156-16.566406-8.066406-19.738281zm0 0" fill="#8db9c4"/><path d="m275.375 411.308594c1.953125.003906 3.902344-.378906 5.738281-1.140625 3.675781-1.519531 6.59375-4.441407 8.117188-8.113281l63.789062-154.003907 63.785157-153.996093c3.171874-7.65625-.464844-16.433594-8.117188-19.601563l-13.855469-5.738281-139.054687 335.714844 13.859375 5.738281c1.835937.761719 3.789062 1.140625 5.738281 1.140625zm0 0" fill="#c5e1e6"/><path d="m198.695312 84.796875c-4.085937 9.863281-4.085937 20.730469 0 30.59375 4.085938 9.863281 11.769532 17.546875 21.632813 21.632813 4.882813 2.023437 10.027344 3.050781 15.285156 3.050781 16.234375 0 30.734375-9.6875 36.941407-24.683594 8.433593-20.359375-1.269532-43.789063-21.628907-52.226563-4.886719-2.023437-10.03125-3.050781-15.292969-3.050781-16.230468 0-30.730468 9.691407-36.9375 24.683594zm27.71875 11.476563c1.550782-3.742188 5.167969-6.160157 9.21875-6.160157 1.300782 0 2.582032.257813 3.808594.769531 5.078125 2.101563 7.5 7.949219 5.394532 13.03125-1.546876 3.742188-5.167969 6.160157-9.21875 6.160157-1.300782 0-2.578126-.257813-3.808594-.769531-2.460938-1.019532-4.378906-2.9375-5.398438-5.394532-1.015625-2.460937-1.015625-5.171875.003906-7.636718zm0 0" fill="#8db9c4"/></svg>