<svg height="512pt" viewBox="-6 0 512 512" width="512pt" xmlns="http://www.w3.org/2000/svg"><path d="m425 437c-11.882812 0-23.277344-2.71875-33.859375-8.082031-3.769531-1.910157-6.5625-5.324219-7.683594-9.402344-1.121093-4.074219-.46875-8.4375 1.792969-12.007813 16.191406-25.550781 24.75-55.117187 24.75-85.507812v-20c0-8.285156 6.714844-15 15-15 41.355469 0 75 33.644531 75 75s-33.644531 75-75 75zm0 0" fill="#df9e7b"/><path d="m75 437c-41.355469 0-75-33.644531-75-75s33.644531-75 75-75c8.285156 0 15 6.714844 15 15v20c0 30.390625 8.558594 59.957031 24.75 85.507812 2.261719 3.570313 2.914062 7.933594 1.792969 12.007813-1.121094 4.078125-3.910157 7.492187-7.683594 9.402344-10.582031 5.363281-21.972656 8.082031-33.859375 8.082031zm0 0" fill="#ffb48d"/><path d="m250 512c-104.765625 0-190-85.234375-190-190v-37c0-8.285156 6.714844-15 15-15h350c8.285156 0 15 6.714844 15 15v37c0 104.765625-85.234375 190-190 190zm0 0" fill="#ffc5a6"/><path d="m425 270h-175v242c104.765625 0 190-85.234375 190-190v-37c0-8.285156-6.714844-15-15-15zm0 0" fill="#ffb48d"/><path d="m199 341c0 8.285156-6.714844 15-15 15s-15-6.714844-15-15 6.714844-15 15-15 15 6.714844 15 15zm0 0" fill="#424278"/><path d="m331 341c0 8.285156-6.714844 15-15 15s-15-6.714844-15-15 6.714844-15 15-15 15 6.714844 15 15zm0 0" fill="#2d2d66"/><path d="m425 300h-350c-8.285156 0-15-6.714844-15-15v-63.828125c-27.960938-19.519531-45-51.777344-45-86.171875 0-57.898438 47.101562-105 105-105 16.40625 0 32.328125 3.761719 46.78125 10.972656 19.714844-25.585937 50.402344-40.972656 83.21875-40.972656s63.503906 15.386719 83.21875 40.972656c14.453125-7.210937 30.375-10.972656 46.78125-10.972656 57.898438 0 105 47.101562 105 105 0 34.394531-17.039062 66.652344-45 86.171875v63.828125c0 8.285156-6.714844 15-15 15zm0 0" fill="#d9ecfa"/><path d="m425 300c8.285156 0 15-6.714844 15-15v-63.828125c27.960938-19.519531 45-51.777344 45-86.171875 0-57.898438-47.101562-105-105-105-16.40625 0-32.328125 3.761719-46.78125 10.972656-19.714844-25.585937-50.402344-40.972656-83.21875-40.972656v300zm0 0" fill="#c1daee"/><path d="m250 447c-24.8125 0-45-20.1875-45-45 0-8.285156 6.714844-15 15-15s15 6.714844 15 15c0 8.269531 6.730469 15 15 15s15-6.730469 15-15c0-8.285156 6.714844-15 15-15s15 6.714844 15 15c0 24.8125-20.1875 45-45 45zm0 0" fill="#424278"/><path d="m295 402c0-8.285156-6.714844-15-15-15s-15 6.714844-15 15c0 8.269531-6.730469 15-15 15v30c24.8125 0 45-20.1875 45-45zm0 0" fill="#2d2d66"/></svg>