<svg height="511pt" viewBox="0 -21 511.99955 511" width="511pt" xmlns="http://www.w3.org/2000/svg"><path d="m30 299.449219c0 8.285156-6.714844 15-15 15s-15-6.714844-15-15c0-8.28125 6.714844-15 15-15s15 6.71875 15 15zm0 0" fill="#ffaf00"/><path d="m121 74.449219c0 8.285156-6.714844 15-15 15s-15-6.714844-15-15c0-8.28125 6.714844-15 15-15s15 6.71875 15 15zm0 0" fill="#2db124"/><path d="m289.8125 102.40625c-2.40625-12.769531-10.648438-23.308594-22.613281-28.925781-12.328125-5.785157-26.769531-5.304688-38.628907 1.285156-14.507812 8.058594-22.933593 23.324219-21.460937 38.882813.128906 1.359374.082031 2.761718-.144531 4.160156-.929688 5.828125-5.433594 11.015625-11.203125 12.902344-4.335938 1.421874-8.472657 1.015624-12.652344-1.234376-5.9375-3.199218-13.289063-2.035156-17.949219 2.839844-4.664062 4.878906-5.5 12.269532-2.035156 18.0625 12.621094 21.125 35.050781 33.582032 59.140625 33.582032 3.667969 0 7.378906-.289063 11.09375-.882813 30.144531-4.796875 53.652344-29.398437 57.167969-59.824219.8125-7.007812.574218-14.023437-.714844-20.847656zm0 0" fill="#ff4964"/><path d="m315.136719 217.484375c-2.078125 0-4.191407-.433594-6.203125-1.351563-7.542969-3.429687-10.875-12.324218-7.441406-19.867187l42.746093-93.960937c3.429688-7.539063 12.328125-10.871094 19.863281-7.441407 7.539063 3.429688 10.871094 12.324219 7.441407 19.867188l-42.746094 93.960937c-2.511719 5.527344-7.960937 8.792969-13.660156 8.792969zm0 0" fill="#abccde"/><path d="m102.777344 469.472656c-6.511719 0-13.070313-.855468-19.53125-2.585937-19.351563-5.1875-35.523438-17.597657-45.539063-34.945313l-30-51.960937c-1.992187-3.445313-2.53125-7.542969-1.5-11.382813 1.027344-3.84375 3.542969-7.121094 6.988281-9.109375l294.449219-170c3.445313-1.988281 7.539063-2.527343 11.382813-1.5 3.84375 1.03125 7.117187 3.542969 9.105468 6.992188l30 51.960937c20.679688 35.8125 8.363282 81.773438-27.449218 102.453125l-190.527344 110c-11.554688 6.671875-24.382812 10.078125-37.378906 10.078125zm0 0" fill="#d9ecfa"/><path d="m319.027344 187.988281c-3.84375-1.027343-7.9375-.488281-11.382813 1.5l-147.222656 85 75 129.90625 95.261719-55c35.8125-20.679687 48.128906-66.640625 27.449218-102.453125l-30-51.960937c-1.988281-3.445313-5.265624-5.960938-9.105468-6.992188zm0 0" fill="#c1daee"/><path d="m372.902344 149.5c-5.183594 0-10.222656-2.6875-13.003906-7.5l-30-51.960938c-1.988282-3.445312-2.527344-7.542968-1.496094-11.382812 1.027344-3.84375 3.542968-7.121094 6.988281-9.109375l109.117187-63c10.410157-6.007813 22.539063-7.605469 34.148438-4.496094 11.609375 3.113281 21.3125 10.558594 27.324219 20.96875 12.40625 21.488281 5.015625 49.0625-16.472657 61.46875l-109.117187 63c-2.363281 1.363281-4.941406 2.011719-7.488281 2.011719zm0 0" fill="#424278"/><path d="m105 269.453125c-5.183594 0-10.226562-2.691406-13.003906-7.503906l-30-51.960938c-4.140625-7.171875-1.683594-16.347656 5.488281-20.488281 7.175781-4.144531 16.351563-1.683594 20.492187 5.488281l30 51.960938c4.140626 7.175781 1.683594 16.351562-5.492187 20.492187-2.359375 1.363282-4.941406 2.011719-7.484375 2.011719zm0 0" fill="#d9ecfa"/><path d="m87.976562 194.988281c-4.140624-7.171875-13.316406-9.632812-20.492187-5.488281l45 77.941406c7.175781-4.140625 9.632813-13.316406 5.492187-20.492187zm0 0" fill="#c1daee"/><path d="m23.023438 247.488281c-1.300782 0-2.605469-.167969-3.882813-.511719-3.84375-1.027343-7.117187-3.542968-9.105469-6.988281-20.679687-35.8125-8.363281-81.773437 27.449219-102.453125 17.351563-10.015625 37.5625-12.675781 56.914063-7.492187 19.351562 5.1875 35.523437 17.597656 45.539062 34.945312 1.988281 3.445313 2.527344 7.539063 1.5 11.382813s-3.542969 7.117187-6.988281 9.105468l-103.925781 60c-2.300782 1.332032-4.890626 2.011719-7.5 2.011719zm0 0" fill="#a6632a"/><path d="m94.398438 130.046875c-19.351563-5.1875-39.5625-2.523437-56.914063 7.492187l45 77.941407 51.964844-30c3.445312-1.988281 5.957031-5.265625 6.988281-9.109375s.492188-7.9375-1.5-11.382813c-10.015625-17.347656-26.191406-29.757812-45.539062-34.941406zm0 0" fill="#90511a"/><path d="m222.265625 183.960938c3.667969 0 7.378906-.289063 11.09375-.882813 30.144531-4.796875 53.652344-29.398437 57.171875-59.824219.808594-7.007812.566406-14.023437-.71875-20.847656-2.40625-12.769531-10.648438-23.308594-22.613281-28.925781-4.558594-2.136719-9.402344-3.414063-14.300781-3.847657zm0 0" fill="#f72141"/></svg>