<svg height="512pt" viewBox="0 0 512 512" width="512pt" xmlns="http://www.w3.org/2000/svg"><path d="m249.71875 328.023438c-5.859375-5.859376-15.355469-5.859376-21.214844 0l-44.558594-44.5625c5.859376-5.859376 5.859376-15.355469 0-21.214844-5.859374-5.859375-15.355468-5.855469-21.214843 0l-144.746094 144.753906c-23.976563 23.980469-23.980469 63 0 86.984375 11.613281 11.617187 27.058594 18.015625 43.488281 18.015625h.003906c16.429688 0 31.875-6.398438 43.488282-18.015625l144.75-144.746094c5.859375-5.859375 5.859375-15.355469.003906-21.214843zm0 0" fill="#d55f05"/><path d="m228.503906 328.023438-22.261718-22.265626-188.242188 188.242188c11.613281 11.605469 27.050781 18 43.472656 18h.003906c16.429688 0 31.875-6.398438 43.488282-18.015625l144.75-144.746094c5.859375-5.859375 5.859375-15.355469 0-21.214843-5.855469-5.859376-15.351563-5.859376-21.210938 0zm0 0" fill="#cb4509"/><path d="m466.710938 45.257812c-29.1875-29.1875-67.992188-45.257812-109.265626-45.257812-41.273437 0-80.078124 16.074219-109.261718 45.257812-29.746094 29.75-60.871094 85.0625-77.449219 137.636719-20.867187 66.179688-16.71875 118.265625 11.679687 146.660157.003907.007812.011719.011718.015626.015624.246093.242188.507812.488282.785156.738282 16.441406 15.964844 40.105468 24.074218 70.386718 24.074218 72.199219 0 170.261719-47.746093 213.109376-90.597656 29.1875-29.183594 45.261718-67.988281 45.261718-109.261718 0-41.273438-16.074218-80.078126-45.261718-109.265626zm-21.210938 21.210938c1.183594 1.1875 3.40625 11.113281-8.453125 34.835938-11.722656 23.441406-32.078125 50.253906-57.320313 75.496093-24.9375 24.9375-64.25 57.941407-100.152343 84.082031-37.472657 27.28125-60.375 39.316407-72.015625 43.492188 4.074218-11.292969 15.769531-33.695312 42.515625-70.589844 26.339843-36.335937 59.742187-76.191406 85.089843-101.546875 43.824219-43.816406 86.242188-66.742187 105.492188-66.742187 3.0625 0 4.507812.636718 4.84375.972656zm-246.15625 125.449219c15.257812-48.390625 43.410156-98.804688 70.050781-125.445313 23.519531-23.519531 54.792969-36.472656 88.050781-36.472656 18.847657 0 37.050782 4.160156 53.570313 12.042969-28.695313 11.128906-63.882813 35.808593-97.0625 68.984375-28.742187 28.742187-66.789063 74.65625-94.671875 114.25-13.164062 18.691406-23.449219 35.023437-30.691406 48.710937-2.984375-21.644531.570312-49.769531 10.753906-82.070312zm246.15625 50.652343c-38.617188 38.617188-128.890625 81.8125-191.898438 81.8125-5.542968 0-10.738281-.332031-15.582031-.984374 14.171875-7.503907 33.300781-19.398438 59.210938-38.265626 37.054687-26.976562 77.761719-61.175781 103.707031-87.117187 30.144531-30.144531 57.132812-66.070313 69.082031-96.878906 7.824219 16.46875 11.953125 34.609375 11.953125 53.386719 0 33.257812-12.953125 64.53125-36.472656 88.046874zm0 0" fill="#c5e1e6"/><path d="m466.726562 45.273438-21.214843 21.214843c1.191406 1.25 3.347656 11.191407-8.46875 34.816407-11.71875 23.441406-32.074219 50.253906-57.316407 75.496093-24.941406 24.933594-64.25 57.9375-100.152343 84.082031-37.363281 27.199219-60.234375 39.238282-71.910157 43.453126l-25.234374 25.234374c.246093.242188.507812.488282.785156.738282 16.441406 15.960937 40.105468 24.070312 70.386718 24.070312 72.199219 0 170.261719-47.746094 213.109376-90.59375 29.1875-29.1875 45.261718-67.988281 45.261718-109.265625 0-41.261719-16.070312-80.058593-45.246094-109.246093zm-21.226562 197.296874c-38.617188 38.617188-128.890625 81.8125-191.898438 81.8125-5.542968 0-10.738281-.332031-15.582031-.984374 14.171875-7.503907 33.300781-19.398438 59.210938-38.265626 37.054687-26.976562 77.761719-61.175781 103.707031-87.117187 30.144531-30.144531 57.132812-66.070313 69.082031-96.878906 7.824219 16.46875 11.953125 34.609375 11.953125 53.386719 0 33.257812-12.953125 64.53125-36.472656 88.046874zm0 0" fill="#8db9c4"/></svg>